<svg xmlns="http://www.w3.org/2000/svg" xmlns:xlink="http://www.w3.org/1999/xlink" zoomAndPan="magnify" preserveAspectRatio="xMidYMid meet" version="1.0" viewBox="7.08 122.82 365.3 134.91"><defs><g/><clipPath id="e429f6e076"><path d="M 86.5625 136 L 179 136 L 179 231.019531 L 86.5625 231.019531 Z M 86.5625 136 " clip-rule="nonzero"/></clipPath></defs><g clip-path="url(#e429f6e076)"><path fill="#e1f340" d="M 142.765625 224.578125 C 130.105469 230.105469 114.949219 224.300781 109.683594 210.710938 C 106.523438 202.574219 107.203125 191.917969 113.4375 183.925781 L 151.710938 183.925781 C 161.816406 196.371094 158.511719 217.714844 142.765625 224.578125 Z M 167.429688 142.652344 L 150.136719 142.652344 L 150.136719 154.375 C 146.621094 150.738281 137.167969 140.957031 132.660156 136.300781 C 131.789062 137.203125 97.097656 173.09375 86.617188 183.925781 L 92.355469 183.925781 C 87.714844 194.582031 87.902344 207.316406 92.167969 217.46875 C 106.507812 251.625 158.074219 252.359375 173.089844 217.234375 C 177.585938 206.726562 177.382812 194.023438 173.132812 183.925781 L 178.703125 183.925781 L 167.429688 172.265625 L 167.429688 142.652344 " fill-opacity="1" fill-rule="nonzero"/></g><g fill="#ffffff" fill-opacity="1"><g transform="translate(0.528225, 226.674843)"><g><path d="M 45.671875 -72.5625 C 50.316406 -72.5625 54.65625 -71.585938 58.6875 -69.640625 C 62.71875 -67.703125 66.203125 -65.046875 69.140625 -61.671875 C 72.085938 -58.304688 74.390625 -54.367188 76.046875 -49.859375 C 77.710938 -45.359375 78.546875 -40.546875 78.546875 -35.421875 L 78.546875 0 L 59.328125 0 L 59.328125 -12.953125 C 59.328125 -16.554688 59.347656 -20.273438 59.390625 -24.109375 C 59.441406 -27.953125 59.46875 -31.25 59.46875 -34 C 59.46875 -36.65625 59.039062 -39.265625 58.1875 -41.828125 C 57.332031 -44.390625 56.144531 -46.640625 54.625 -48.578125 C 53.113281 -50.523438 51.335938 -52.09375 49.296875 -53.28125 C 47.253906 -54.46875 45.097656 -55.0625 42.828125 -55.0625 C 40.640625 -55.0625 38.550781 -54.65625 36.5625 -53.84375 C 34.570312 -53.039062 32.816406 -51.859375 31.296875 -50.296875 C 29.785156 -48.734375 28.578125 -46.765625 27.671875 -44.390625 C 26.773438 -42.015625 26.328125 -39.21875 26.328125 -36 L 26.328125 0 L 6.546875 0 L 6.546875 -103.859375 L 26.328125 -103.859375 L 26.328125 -65.171875 C 28.785156 -67.535156 31.601562 -69.359375 34.78125 -70.640625 C 37.957031 -71.921875 41.585938 -72.5625 45.671875 -72.5625 Z M 45.671875 -72.5625 "/></g></g></g><g fill="#ffffff" fill-opacity="1"><g transform="translate(180.297369, 229.556449)"><g><path d="M 84.9375 -70.578125 C 87.5 -70.578125 90.25 -70.148438 93.1875 -69.296875 C 96.132812 -68.441406 98.863281 -66.921875 101.375 -64.734375 C 103.882812 -62.554688 105.945312 -59.566406 107.5625 -55.765625 C 109.175781 -51.972656 109.984375 -47.140625 109.984375 -41.265625 L 109.984375 0 L 90.34375 0 L 90.34375 -37.703125 C 90.34375 -40.546875 90.035156 -42.960938 89.421875 -44.953125 C 88.804688 -46.953125 87.976562 -48.566406 86.9375 -49.796875 C 85.894531 -51.023438 84.6875 -51.898438 83.3125 -52.421875 C 81.9375 -52.953125 80.535156 -53.21875 79.109375 -53.21875 C 77.773438 -53.21875 76.441406 -52.976562 75.109375 -52.5 C 73.785156 -52.03125 72.601562 -51.222656 71.5625 -50.078125 C 70.519531 -48.941406 69.691406 -47.378906 69.078125 -45.390625 C 68.460938 -43.398438 68.15625 -40.882812 68.15625 -37.84375 L 68.15625 0 L 48.515625 0 L 48.515625 -37.703125 C 48.515625 -43.492188 47.519531 -47.523438 45.53125 -49.796875 C 43.539062 -52.078125 40.644531 -53.21875 36.84375 -53.21875 C 34.09375 -53.21875 31.628906 -51.9375 29.453125 -49.375 C 27.273438 -46.8125 26.1875 -42.828125 26.1875 -37.421875 L 26.1875 0 L 6.546875 0 L 6.546875 -70.578125 L 23.328125 -70.578125 L 26.1875 -64.03125 C 28.363281 -66.113281 30.894531 -67.722656 33.78125 -68.859375 C 36.675781 -70.003906 39.785156 -70.578125 43.109375 -70.578125 C 44.816406 -70.578125 46.617188 -70.410156 48.515625 -70.078125 C 50.410156 -69.742188 52.257812 -69.148438 54.0625 -68.296875 C 55.863281 -67.441406 57.59375 -66.328125 59.25 -64.953125 C 60.914062 -63.578125 62.410156 -61.847656 63.734375 -59.765625 C 64.878906 -61.566406 66.253906 -63.15625 67.859375 -64.53125 C 69.472656 -65.90625 71.226562 -67.039062 73.125 -67.9375 C 75.03125 -68.84375 77 -69.507812 79.03125 -69.9375 C 81.070312 -70.363281 83.039062 -70.578125 84.9375 -70.578125 Z M 84.9375 -70.578125 "/></g></g></g><g fill="#ffffff" fill-opacity="1"><g transform="translate(289.996392, 229.556449)"><g><path d="M 60.890625 -70.578125 L 82.375 -70.578125 L 37.84375 28.171875 L 16.359375 28.171875 L 33.859375 -10.671875 L 3.984375 -70.578125 L 25.890625 -70.578125 L 44.25 -33.71875 Z M 60.890625 -70.578125 "/></g></g></g></svg>